Coordinates
version=1
nRows=21
nColumns=22
inDegrees=yes

Units are S.I. units (second, meters, Newtons, ...)
If the header above contains a line with 'inDegrees', this indicates whether rotational values are in degrees (yes) or radians (no).

endheader
time	pelvis_tilt	pelvis_list	pelvis_rotation	pelvis_tx	pelvis_ty	pelvis_tz	hip_flexion_r	hip_adduction_r	hip_rotation_r	knee_angle_r	ankle_angle_r	subtalar_angle_r	hip_flexion_l	hip_adduction_l	hip_rotation_l	knee_angle_l	ankle_angle_l	subtalar_angle_l	lumbar_extension	lumbar_bending	lumbar_rotation
      0.01000000	      2.18739438	     -1.79814308	     -1.08520717	      0.65472868	      1.08301612	     -0.31523583	     -4.25380505	      3.18373230	     -0.85396461	     -8.17492573	     10.80931055	     -2.87897288	     -2.60276420	     -2.54418020	     -4.28037044	    -12.70847580	     13.69246761	      0.20510192	     -2.78283562	     -0.51040102	     -5.18424101
      0.02000000	      2.17927306	     -1.79806264	     -1.08677907	      0.65474210	      1.08300938	     -0.31523416	     -4.24943981	      3.18374499	     -0.85422664	     -8.16860373	     10.80968720	     -2.87886183	     -2.59800123	     -2.54398948	     -4.28117498	    -12.70339257	     13.69262291	      0.20562907	     -2.79430218	     -0.50978132	     -5.18429236
      0.03000000	      2.16962476	     -1.79771157	     -1.08769312	      0.65476025	      1.08300108	     -0.31523510	     -4.24495134	      3.18335663	     -0.85462245	     -8.16000772	     10.80968637	     -2.87865404	     -2.59228463	     -2.54342361	     -4.28216714	    -12.69716403	     13.69242683	      0.20612508	     -2.80730660	     -0.50921186	     -5.18397400
      0.04000000	      2.15850608	     -1.79713860	     -1.08785921	      0.65478229	      1.08299157	     -0.31523843	     -4.24073827	      3.18257156	     -0.85506430	     -8.14909252	     10.80933242	     -2.87832882	     -2.58549366	     -2.54272533	     -4.28315133	    -12.69003639	     13.69191171	      0.20663943	     -2.82141083	     -0.50898413	     -5.18268474
      0.05000000	      2.13841489	     -1.79321497	     -1.08348665	      0.65484454	      1.08297169	     -0.31524729	     -4.24430098	      3.17876323	     -0.84912543	     -8.10820874	     10.80030239	     -2.87567898	     -2.57135546	     -2.53885108	     -4.28118653	    -12.68125877	     13.68450482	      0.21009673	     -2.81911210	     -0.51452980	     -5.17073012
      0.06000000	      2.12740593	     -1.79303793	     -1.08427899	      0.65487754	      1.08296022	     -0.31524819	     -4.23935211	      3.17848335	     -0.84907050	     -8.09986665	     10.79962512	     -2.87534792	     -2.56518888	     -2.53821522	     -4.28162384	    -12.67484036	     13.68433680	      0.21048655	     -2.83546921	     -0.51465603	     -5.16964765
      0.07000000	      2.11571031	     -1.79283578	     -1.08405821	      0.65491738	      1.08294607	     -0.31525268	     -4.23537363	      3.17791641	     -0.84943108	     -8.08917220	     10.79916758	     -2.87493600	     -2.55819123	     -2.53780267	     -4.28216199	    -12.66822767	     13.68420088	      0.21087095	     -2.85186171	     -0.51501405	     -5.16634566
      0.08000000	      2.09876581	     -1.79124633	     -1.08059819	      0.65500060	      1.08292685	     -0.31526059	     -4.24317400	      3.17644804	     -0.84450689	     -8.04957067	     10.79190384	     -2.87196236	     -2.54605356	     -2.53611504	     -4.27984411	    -12.66534699	     13.68106900	      0.21342934	     -2.85460772	     -0.51989616	     -5.14196508
      0.09000000	      2.08739408	     -1.79189992	     -1.08382388	      0.65506076	      1.08291357	     -0.31525615	     -4.23969902	      3.17658381	     -0.84465939	     -8.04077142	     10.79130612	     -2.87155579	     -2.54085472	     -2.53648368	     -4.28053251	    -12.65974194	     13.68132737	      0.21376597	     -2.87006953	     -0.52088048	     -5.14122141
      0.10000000	      2.07101995	     -1.79336998	     -1.08587500	      0.65516383	      1.08289726	     -0.31525901	     -4.24988138	      3.17796091	     -0.83371307	     -7.99930598	     10.78048227	     -2.86776109	     -2.53220685	     -2.53762768	     -4.28506144	    -12.65495367	     13.68092993	      0.21676600	     -2.87249165	     -0.52192282	     -5.12315535
      0.11000000	      2.05996536	     -1.79485260	     -1.09008163	      0.65523882	      1.08288449	     -0.31525770	     -4.24706121	      3.17866657	     -0.83356376	     -7.99128056	     10.77959943	     -2.86733159	     -2.52788152	     -2.53857403	     -4.28611165	    -12.65005996	     13.68130366	      0.21709675	     -2.88742070	     -0.52309984	     -5.12344949
      0.12000000	      2.04834693	     -1.80606098	     -1.09881929	      0.65534873	      1.08287857	     -0.31525192	     -4.26630973	      3.19010528	     -0.79520241	     -7.94357740	     10.74577573	     -2.85879450	     -2.52590226	     -2.55053873	     -4.30224642	    -12.64460074	     13.68322763	      0.22350630	     -2.89625776	     -0.51286957	     -5.11541051
      0.13000000	      2.03703586	     -1.80822112	     -1.10412424	      0.65543340	      1.08286665	     -0.31525688	     -4.26409618	      3.19105974	     -0.79775320	     -7.93464152	     10.74649068	     -2.85851417	     -2.52201155	     -2.55137305	     -4.30310298	    -12.64018467	     13.68364980	      0.22367238	     -2.91071199	     -0.51454762	     -5.11532575
      0.14000000	      2.02239478	     -1.81325657	     -1.10648706	      0.65556402	      1.08285101	     -0.31527778	     -4.27695472	      3.19470124	     -0.79975663	     -7.89470812	     10.74276829	     -2.85550611	     -2.51785513	     -2.55539210	     -4.31178111	    -12.63309086	     13.68514665	      0.22441884	     -2.91361198	     -0.51172294	     -5.10908135
      0.15000000	      2.01055566	     -1.81609382	     -1.11127405	      0.65565507	      1.08283779	     -0.31528951	     -4.27510518	      3.19630153	     -0.80030520	     -7.88548425	     10.74176651	     -2.85489546	     -2.51395740	     -2.55673553	     -4.31260295	    -12.62813081	     13.68579647	      0.22449203	     -2.92823082	     -0.51454567	     -5.11046204
      0.16000000	      1.99200437	     -1.82321163	     -1.11275581	      0.65581655	      1.08281812	     -0.31532140	     -4.29441196	      3.20229771	     -0.79020395	     -7.82861811	     10.72561819	     -2.84826162	     -2.51105488	     -2.56232676	     -4.32255918	    -12.61425099	     13.69109296	      0.22487946	     -2.92279262	     -0.50993142	     -5.10871962
      0.17000000	      1.97972723	     -1.82668752	     -1.11787835	      0.65591686	      1.08280317	     -0.31534057	     -4.29278050	      3.20434829	     -0.78991479	     -7.81965970	     10.72396968	     -2.84739434	     -2.50745771	     -2.56381650	     -4.32291513	    -12.60918325	     13.69205608	      0.22496206	     -2.93730421	     -0.51328337	     -5.10966116
      0.18000000	      1.95854297	     -1.83546404	     -1.12149323	      0.65610222	      1.08277768	     -0.31537645	     -4.31332886	      3.21178171	     -0.77369052	     -7.75741790	     10.70472809	     -2.83872320	     -2.50729130	     -2.57022510	     -4.33110954	    -12.58850437	     13.70262166	      0.22567939	     -2.92587655	     -0.50828719	     -5.09982855
      0.19000000	      1.94613659	     -1.83925796	     -1.12686769	      0.65621324	      1.08275969	     -0.31540381	     -4.31213780	      3.21374022	     -0.77263149	     -7.74867288	     10.70299472	     -2.83773703	     -2.50422787	     -2.57156038	     -4.33157877	    -12.58338907	     13.70391553	      0.22586082	     -2.93953074	     -0.51155416	     -5.10016984
      0.20000000	      1.92886399	     -1.85613538	     -1.14300097	      0.65639909	      1.08274516	     -0.31541890	     -4.34192038	      3.22987100	     -0.70813578	     -7.67799685	     10.65586849	     -2.81855476	     -2.51230457	     -2.58591937	     -4.34425459	    -12.55932240	     13.72350251	      0.23178489	     -2.93353269	     -0.49856449	     -5.07959724
      0.21000000	      1.91393012	     -1.86187014	     -1.14996027	      0.65656721	      1.08272212	     -0.31545824	     -4.35115130	      3.23277343	     -0.71240846	     -7.64843472	     10.65867462	     -2.81562669	     -2.51511546	     -2.58868993	     -4.35610505	    -12.54440369	     13.72819143	      0.23372929	     -2.93344974	     -0.49766165	     -5.06746736
